<svg clip-rule="evenodd" fill-rule="evenodd" stroke-linejoin="round" stroke-miterlimit="2" viewBox="0 0 350 98" xmlns="http://www.w3.org/2000/svg"><g transform="translate(-20 -22.2)"><g fill="#8a8a8c" fill-rule="nonzero"><path d="m177.6 51.3v15.9c0 5.4 2 8.3 6.7 8.3 4.9 0 6.6-3.9 6.6-7.6v-16.6h3.4v16.6c0 5.9-3.6 10.1-10 10.1-7.4 0-10.3-3.9-10.3-10.6v-16h3.6z"/><path d="m223.2 77.5h-2.8c-5.7-6.8-15.5-18.6-17.1-20.9h-.1v20.9h-3v-26.2h2.7c5.8 6.8 15.4 18.3 17.2 20.9h.1v-20.9h3z"/><path d="m229.4 51.3h3.6v26.2h-3.6z"/><path d="m245.8 77.5-9.8-25.9 3.7-.7c2.5 7.2 5.1 14.4 7.6 22.4h.1c2.6-8.1 5.3-15.3 8-22.4l3.3.5-10.5 26.2h-2.4z"/><path d="m274.5 53.9h-9.3v8.5h9.1v2.6h-9.1v9.9h10.9v2.6h-14.5v-26.2h12.9z"/><path d="m280.1 51.3h7.6c4.3 0 7.6 2.2 7.6 6.7 0 3.9-1.9 6-4.4 7.6l6.5 11.2-3.7 1.1-6.1-11.3h-3.9v10.9h-3.6zm3.8 12.7h2.1c4.6 0 5.5-3.4 5.5-5.7 0-3.2-2-4.5-4.5-4.5h-3.1z"/><path d="m313.4 55.3c-1.3-.9-3-1.9-4.5-1.9-2.6 0-4.1 1.5-4.1 3.6 0 1.9 1.6 3.3 5 5.7 3.6 2.6 5.7 5 5.7 8.4 0 4.2-3.9 6.9-8.1 6.9-2.5 0-5.5-.9-7.4-2.7l1.6-2.2c1.5 1.1 3.2 2.3 5.7 2.3 2.6 0 4.6-1.4 4.6-4.3 0-3.3-3.9-5.4-6.1-7-2.2-1.7-4.6-3.3-4.6-7 0-3.5 3.4-6.2 7.5-6.2 2.7 0 5 1 6.5 2.6z"/><path d="m320.6 51.3h3.6v26.2h-3.6z"/><path d="m335.9 77.5v-23.6h-8.4v-2.6h20.5v2.6h-8.4v23.6z"/><path d="m357.5 77.6v-11.4l-7.9-14.5 3.9-.8 6.3 12.4 6.9-12.4 3.2.5-8.8 14.8v11.4z"/><path d="m171.6 98.8c0-7.3 5.5-13.1 13.1-13.1s13.1 5.8 13.1 13.1c0 7.8-5 14-13.1 14-8 0-13.1-6.2-13.1-14zm22.3 0c0-4.9-2.6-10.5-9.1-10.5s-9.1 5.6-9.1 10.5c0 5.1 2.3 11.4 9.1 11.4s9.1-6.3 9.1-11.4z"/><path d="m214.8 88.7h-9.3v10h9.1v2.6h-9.1v11h-3.6v-26.2h12.9z"/><path d="m233 112.3h-3.6v-26.2h6.6c5.5 0 9 2.5 9 7.6 0 4.4-3.8 8.4-9.7 8.4h-1.2v-2.4h1.2c3.5-.2 5.7-2.1 5.7-6 0-2.9-1.6-5-5.5-5h-2.5z"/><path d="m257.1 86.1 9.8 26.2h-4.2l-2.7-7.7h-10l-2.8 7.7h-3.5l10.7-26.2zm2 15.9c-1.3-3.6-2.6-7.3-3.9-12h-.1c-1.3 4.7-2.7 8.4-4.2 12z"/><path d="m282.2 90.1c-1.3-.9-3-1.9-4.5-1.9-2.6 0-4.1 1.5-4.1 3.6 0 1.9 1.6 3.3 5 5.7 3.6 2.6 5.7 5 5.7 8.4 0 4.2-3.9 6.9-8.1 6.9-2.5 0-5.5-.9-7.4-2.7l1.6-2.2c1.5 1.1 3.2 2.3 5.7 2.3 2.6 0 4.6-1.4 4.6-4.3 0-3.3-3.9-5.4-6.1-7-2.2-1.7-4.6-3.3-4.6-7 0-3.5 3.4-6.2 7.5-6.2 2.7 0 5 1 6.5 2.6z"/><path d="m301.6 90.1c-1.3-.9-3-1.9-4.5-1.9-2.6 0-4.1 1.5-4.1 3.6 0 1.9 1.6 3.3 5 5.7 3.6 2.6 5.7 5 5.7 8.4 0 4.2-3.9 6.9-8.1 6.9-2.5 0-5.5-.9-7.4-2.7l1.6-2.2c1.5 1.1 3.2 2.3 5.7 2.3 2.6 0 4.6-1.4 4.6-4.3 0-3.3-3.9-5.4-6.1-7-2.2-1.7-4.6-3.3-4.6-7 0-3.5 3.4-6.2 7.5-6.2 2.7 0 5 1 6.5 2.6z"/><path d="m319 86.1 9.8 26.2h-4.2l-2.7-7.7h-10l-2.8 7.7h-3.5l10.7-26.2zm2 15.9c-1.3-3.6-2.6-7.3-3.9-12h-.1c-1.3 4.7-2.7 8.4-4.2 12z"/><path d="m335 86.1v15.9c0 5.4 2 8.3 6.7 8.3 4.9 0 6.6-3.9 6.6-7.6v-16.6h3.4v16.6c0 5.9-3.6 10.1-10 10.1-7.4 0-10.3-3.9-10.3-10.6v-16h3.6z"/><path d="m123.4 51.5h3.5v-16.1l36.1-13.2v90l-3.6-3.6v-81.2l-28.9 10.5v24.1h-10.8v-24l-29-10.5v37.4l-3.6.3-.1-42.9 36.4 13.2z"/></g><path d="m141.6 120.1h20.1c-14.9-13.8-28.7-33.6-6.3-37.2l-2.5-.9c-23.1 3.1-20.3 20.7-11.3 38.1z" fill="#f8971c"/><path d="m49.1 97.5h20.7c11.8-17.6 33.3-22 60.5-23.9l-2.5-.9c-33.2.4-65.8 7.9-78.7 24.8z" fill="#f8971c"/><path d="m79.2 104.9h20.8c3-17.1 16.7-25.7 38.7-28.2l-2.4-.9c-28.7 2.5-52.1 10.8-57.1 29.1z" fill="#f8971c"/><path d="m110 112.3 19.5.2c-5.2-15.5-3.8-30.2 17.6-32.8l-2.5-.9c-23.3 2.2-35.9 15.9-34.6 33.5z" fill="#f8971c"/><path d="m20 89.9c13-11 53.3-20.5 99-20.5l2.7 1c-43.9.5-64.2 8.8-81.1 19.6z" fill="#f8971c"/></g></svg>